PathFileType	4	(X/Y/Z)	/Users/itak/Documents/Research/Walk-IL/dataset/trc/00093_00006.trc
DataRate	CameraRate	NumFrames	NumMarkers	Units	OrigDataRate	OrigDataStartFrame	OrigNumFrames
100.000000	100.000000	4	53	mm	100.000000	356	475
Frame#	Time	RPSI			LPSI			L3			STRN			T10			C7			CLAV			RBAK			LBAK			LSHO			LUPA			LAEL			LAOL			LWTS			LWPS			LFRA			LIFD			LHPS			LHTS			RSHO			RUPA			RAEL			RAOL			RWTS			RWPS			RFRA			RIFD			RHTS			RHPS			RBHD			LFHD			RFHD			LBHD			LHIP			RHIP			RASI			LASI			LKNE			LTHI			LANK			LTIP			LTOE			LMT1			LMT5			LHEE			RKNE			RTHI			RANK			RTIP			RTOE			RMT1			RMT5			RHEE			
		X1	Y1	Z1	X2	Y2	Z2	X3	Y3	Z3	X4	Y4	Z4	X5	Y5	Z5	X6	Y6	Z6	X7	Y7	Z7	X8	Y8	Z8	X9	Y9	Z9	X10	Y10	Z10	X11	Y11	Z11	X12	Y12	Z12	X13	Y13	Z13	X14	Y14	Z14	X15	Y15	Z15	X16	Y16	Z16	X17	Y17	Z17	X18	Y18	Z18	X19	Y19	Z19	X20	Y20	Z20	X21	Y21	Z21	X22	Y22	Z22	X23	Y23	Z23	X24	Y24	Z24	X25	Y25	Z25	X26	Y26	Z26	X27	Y27	Z27	X28	Y28	Z28	X29	Y29	Z29	X30	Y30	Z30	X31	Y31	Z31	X32	Y32	Z32	X33	Y33	Z33	X34	Y34	Z34	X35	Y35	Z35	X36	Y36	Z36	X37	Y37	Z37	X38	Y38	Z38	X39	Y39	Z39	X40	Y40	Z40	X41	Y41	Z41	X42	Y42	Z42	X43	Y43	Z43	X44	Y44	Z44	X45	Y45	Z45	X46	Y46	Z46	X47	Y47	Z47	X48	Y48	Z48	X49	Y49	Z49	X50	Y50	Z50	X51	Y51	Z51	X52	Y52	Z52	X53	Y53	Z53	

357	3.56	-128.2745971679688	1010.21533203125	819.6702270507812	36.92896270751953	994.6293334960938	762.498046875	-46.77624130249023	1065.91357421875	786.2161865234375	26.49664115905762	1273.301879882812	1022.344665527344	-57.1077995300293	1199.6875	771.9140014648438	-45.64181900024414	1467.642333984375	820.4296264648438	15.45254516601562	1386.420654296875	989.433349609375	-135.1366729736328	1326.002075195312	788.5508422851562	41.90255737304688	1431.480590820312	766.1597900390625	146.2070007324219	1438.462036132812	837.87744140625	210.4328002929688	1313.18603515625	786.8350830078125	228.969482421875	1098.536865234375	776.7207641601562	123.9728775024414	1088.887451171875	755.1621704101562	203.3847198486328	845.7398681640625	851.323974609375	236.7951507568359	847.0347290039062	773.4139404296875	242.1488952636719	988.8408203125	777.869140625	177.3483734130859	662.3325805664062	831.750244140625	240.7727508544922	761.4698486328125	789.6149291992188	211.701904296875	759.8317260742188	854.2538452148438	-189.9603576660156	1428.968505859375	939.2556762695312	-250.3796234130859	1355.710693359375	957.2174682617188	-264.8052368164062	1085.579956054688	986.9863891601562	-168.5014190673828	1069.98681640625	966.6141357421875	-134.6838073730469	892.3905639648438	1163.046142578125	-201.1361236572266	850.2120971679688	1126.384033203125	-253.8217315673828	1009.2900390625	1020.672424316406	-78.10794830322266	722.06591796875	1209.555908203125	-107.3230438232422	807.3875122070312	1215.387939453125	-175.3280639648438	780.47705078125	1187.277221679688	-92.02729797363281	1619.74658203125	847.1732177734375	32.64617156982422	1704.705444335938	1010.854431152344	-91.68975830078125	1685.378173828125	1005.856323242188	43.34897994995117	1646.306640625	842.1544189453125	150.1270294189453	939.9945678710938	835.5162963867188	-183.2689361572266	946.5111083984375	909.5282592773438	-130.9336242675781	968.5886840820312	1021.559265136719	130.6419219970703	966.9694213867188	964.302978515625	178.8618621826172	530.9404907226562	1072.023681640625	200.8439025878906	647.4215698242188	982.72607421875	250.0086822509766	59.49051284790039	1125.19140625	228.5110626220703	290.4601440429688	1090.99853515625	233.5503234863281	130.8694915771484	1312.1806640625	183.6020812988281	107.3794631958008	1268.781860351562	284.142333984375	84.61190032958984	1225.346435546875	175.0873565673828	40.57888793945312	1075.03759765625	-111.4130554199219	504.042236328125	945.5616455078125	-153.9627075195312	770.5122680664062	984.3675537109375	-124.0300521850586	44.02330780029297	774.154052734375	-115.5862197875977	380.2659606933594	908.2666625976562	5.327689647674561	39.20333480834961	954.2653198242188	12.71913051605225	47.75894927978516	881.3738403320312	-85.87564086914062	45.43808364868164	893.4306030273438	-92.82925415039062	51.91107559204102	708.7420654296875	
358	3.57	-124.222038269043	1009.526428222656	824.9833984375	41.30081939697266	993.8648071289062	768.6724853515625	-42.53796005249023	1064.98486328125	791.9928588867188	29.87812042236328	1272.598876953125	1027.987060546875	-52.83007431030273	1198.732421875	777.392822265625	-41.47825241088867	1466.762451171875	825.5545654296875	19.03790092468262	1385.692016601562	994.9402465820312	-130.9045867919922	1325.134765625	793.5965576171875	46.14609146118164	1430.427978515625	771.6193237304688	150.2382507324219	1437.470825195312	843.6038818359375	214.5872497558594	1312.102416992188	792.9146118164062	233.5557098388672	1097.534301757812	783.3434448242188	128.5703735351562	1087.607177734375	761.6485595703125	208.3756103515625	844.9703369140625	858.7523803710938	241.7547912597656	846.0070190429688	780.8416748046875	246.8867034912109	987.8544921875	784.8388061523438	182.8529357910156	661.4461059570312	840.1044311523438	245.9468231201172	760.5531616210938	797.4310302734375	216.8946075439453	759.1397705078125	862.1050415039062	-186.1893615722656	1428.234497070312	944.0526123046875	-246.7171020507812	1355.010375976562	961.8280639648438	-261.4034729003906	1084.914794921875	991.669677734375	-165.0851440429688	1069.265869140625	971.4603881835938	-131.1510467529297	892.1710205078125	1168.168212890625	-197.5487823486328	849.8065185546875	1131.536987304688	-250.41455078125	1008.603210449219	1025.490966796875	-74.24105834960938	722.0615844726562	1215.063354492188	-103.6898193359375	807.354736328125	1220.6884765625	-171.5476837158203	780.2338256835938	1192.641357421875	-87.86895751953125	1618.91162109375	852.072509765625	36.16179275512695	1704.010498046875	1016.142761230469	-88.12298583984375	1684.673828125	1010.691711425781	47.50461196899414	1645.509399414062	847.5228881835938	154.1679229736328	939.2013549804688	842.6625366210938	-179.7853393554688	946.0956420898438	914.6065673828125	-127.9274291992188	967.9627685546875	1026.929931640625	134.00146484375	966.0520629882812	970.9581909179688	180.9259796142578	529.8370971679688	1077.968017578125	202.7511749267578	646.1444702148438	989.0481567382812	250.0251922607422	58.38157653808594	1133.10107421875	229.5106964111328	289.2532348632812	1097.796630859375	234.0355529785156	130.1872406005859	1319.911376953125	183.9771118164062	106.8010330200195	1276.655517578125	284.2850036621094	83.56723022460938	1233.085327148438	175.0446624755859	39.59621810913086	1083.12255859375	-109.1178894042969	503.4544677734375	949.993408203125	-151.0879669189453	769.9429321289062	989.1685180664062	-123.7758331298828	44.73954391479492	774.2509765625	-113.9356079101562	379.8638000488281	911.6724243164062	5.273751258850098	39.10037231445312	954.5014038085938	12.77084445953369	47.81757736206055	881.5759887695312	-85.80654907226562	45.42574691772461	893.5272827148438	-92.58924102783203	53.07614135742188	708.8751831054688	
359	3.58	-120.1210327148438	1008.891784667969	830.2926025390625	45.70909881591797	993.1636352539062	774.8557739257812	-38.25533294677734	1064.08056640625	797.816650390625	33.29567718505859	1271.931396484375	1033.642333984375	-48.50345993041992	1197.802124023438	782.9012451171875	-37.26287460327148	1465.900390625	830.7083740234375	22.67045783996582	1385.002197265625	1000.463928222656	-126.6205062866211	1324.286987304688	798.6589965820312	50.44606399536133	1429.408813476562	777.0887451171875	154.3230895996094	1436.538330078125	849.3395385742188	218.7931213378906	1311.063232421875	799.0369873046875	238.2134857177734	1096.585693359375	790.1070556640625	133.2380676269531	1086.3486328125	768.2821044921875	213.5108947753906	844.30419921875	866.4537353515625	246.8732147216797	845.0545043945312	788.5659790039062	251.7310485839844	986.931396484375	792.0222778320312	188.574462890625	660.6390991210938	848.7964477539062	251.3453674316406	759.7392578125	805.5928344726562	222.2270660400391	758.5487060546875	870.2789306640625	-182.3588714599609	1427.53515625	948.8511962890625	-243.0080108642578	1354.349609375	966.4428100585938	-257.9683837890625	1084.288330078125	996.2421875	-161.6202087402344	1068.575317382812	976.2171020507812	-127.7126083374023	891.8014526367188	1173.063354492188	-194.0689849853516	849.3080444335938	1136.443359375	-247.0165405273438	1007.949890136719	1030.13916015625	-70.59314727783203	721.820068359375	1220.205810546875	-100.2346115112305	807.0836791992188	1225.69677734375	-167.9527587890625	779.8488159179688	1197.675537109375	-83.67804718017578	1618.0947265625	856.9610595703125	39.71120834350586	1703.3583984375	1021.408996582031	-84.51889038085938	1684.016479492188	1015.509155273438	51.69922256469727	1644.72998046875	852.8817749023438	158.214111328125	938.4657592773438	849.9340209960938	-176.2105407714844	945.68310546875	919.6725463867188	-124.8943176269531	967.35400390625	1032.310791015625	137.3571319580078	965.1529541015625	977.6410522460938	183.0105590820312	528.6133422851562	1084.063232421875	204.4838104248047	644.9776611328125	995.61279296875	249.4779510498047	56.9207649230957	1139.146362304688	230.1636199951172	287.6869506835938	1103.745849609375	234.3621063232422	128.3099822998047	1326.1181640625	184.1070251464844	105.2247619628906	1283.021850585938	284.0913391113281	81.70835113525391	1239.00732421875	174.3418731689453	38.51604461669922	1089.425903320312	-106.7398376464844	502.8806457519531	954.4998168945312	-148.1943206787109	769.3961791992188	993.9495239257812	-123.5073623657227	45.56416702270508	774.372314453125	-112.2287292480469	379.4874267578125	915.14892578125	5.216780662536621	39.00056457519531	954.7374267578125	12.81548690795898	47.88608932495117	881.7942504882812	-85.72458648681641	45.42904663085938	893.6331787109375	-92.35717010498047	54.3804817199707	709.0269775390625	
360	3.59	-115.9690170288086	1008.308715820312	835.6102905273438	50.16781616210938	992.51416015625	781.0697631835938	-33.91508483886719	1063.203491210938	803.695068359375	36.7476692199707	1271.310302734375	1039.316650390625	-44.11368560791016	1196.89990234375	788.4425659179688	-32.99246215820312	1465.067749023438	835.8840942382812	26.34825897216797	1384.36376953125	1006.007690429688	-122.2742919921875	1323.462158203125	803.7349243164062	54.81510543823242	1428.429931640625	782.5739135742188	158.4683685302734	1435.670166015625	855.098876953125	223.0639343261719	1310.07568359375	805.2180786132812	242.9400787353516	1095.693237304688	797.0039672851562	137.9788970947266	1085.122436523438	775.0626220703125	218.792724609375	843.7469482421875	874.4176025390625	252.1296539306641	844.1822509765625	796.568359375	256.6794128417969	986.073974609375	799.4049682617188	194.4841766357422	659.9198608398438	857.8131713867188	256.9580383300781	759.0317993164062	814.0823364257812	227.7057037353516	758.0653076171875	878.759033203125	-178.4721221923828	1426.874267578125	953.6455078125	-239.2454986572266	1353.732055664062	971.0575561523438	-254.4922790527344	1083.697631835938	1000.711059570312	-158.0972595214844	1067.918334960938	980.8875122070312	-124.3687286376953	891.2799072265625	1177.741577148438	-190.6957702636719	848.71435546875	1141.103271484375	-243.6390686035156	1007.331726074219	1034.611083984375	-67.17237854003906	721.3381958007812	1224.989501953125	-96.9483642578125	806.5676879882812	1230.420043945312	-164.5485534667969	779.3126831054688	1202.379272460938	-79.45121002197266	1617.309204101562	861.8391723632812	43.29861450195312	1702.7607421875	1026.653442382812	-80.88072204589844	1683.41943359375	1020.309936523438	55.9349479675293	1643.9765625	858.2348022460938	162.2856292724609	937.7702026367188	857.3351440429688	-172.5365600585938	945.2855224609375	924.7510986328125	-121.8279647827148	966.7716674804688	1037.713623046875	140.7303314208984	964.2755126953125	984.3688354492188	185.0229034423828	527.262939453125	1090.251342773438	206.0719604492188	643.8780517578125	1002.362731933594	248.5570678710938	55.24562072753906	1143.578735351562	230.5132141113281	285.83349609375	1108.972290039062	234.4929046630859	125.3388977050781	1331.054809570312	184.0066680908203	102.7000885009766	1288.087036132812	283.6467590332031	79.19794464111328	1243.403686523438	173.22216796875	37.40961074829102	1094.134643554688	-104.2891540527344	502.3370361328125	959.0640258789062	-145.2815551757812	768.8822021484375	998.7260131835938	-123.2404098510742	46.50141906738281	774.5259399414062	-110.4629974365234	379.1478881835938	918.6909790039062	5.163797855377197	38.90794372558594	954.9616088867188	12.84847068786621	47.96418762207031	882.024169921875	-85.62937164306641	45.45677185058594	893.7578735351562	-92.14320373535156	55.83303833007812	709.2109375	
